<svg xmlns="http://www.w3.org/2000/svg" fill="none" viewBox="0.73 0 1024.02 300.02">
  <path fill="url(#a)" d="M92.8276 161.307.734375 297.107H82.3664l37.0426-54.73c8.575-12.828 13.034-21.892-1.886-44.811l-24.6954-36.259Z"/>
  <path fill="#FB2576" d="M158.339 137.362 82.3664 25.5063H.734375L117.523 197.566c14.92 22.747 10.29 31.983 1.886 44.81l2.916-4.447 37.9-55.756c8.575-12.828 13.206-21.893-1.886-44.811Z"/>
  <path fill="#6316DB" d="M266.724 25.5064h-81.46l-51.449 75.7676 24.696 36.259c14.92 22.748 10.289 31.983 1.886 44.811L266.724 25.5064ZM472.688 290.779c-14.063-6.157-22.466-14.538-30.698-25.313-8.232-10.775-12.691-22.747-13.72-36.088h59.852c.686 7.183 4.116 12.998 9.947 17.445 6.002 4.447 13.205 6.671 21.951 6.671 7.889 0 14.063-1.54 18.35-4.618 4.288-3.079 6.517-7.013 6.517-11.973 0-5.986-3.087-10.262-9.26-13.169-6.174-2.908-16.121-5.986-30.012-9.407-14.749-3.421-27.268-7.012-37.043-10.946-9.947-3.763-18.35-9.92-25.553-18.13-7.203-8.209-10.804-19.326-10.804-33.522 0-11.801 3.258-22.576 9.775-32.325 6.517-9.749 16.12-17.446 28.983-23.0898 12.69-5.6441 27.782-8.5517 45.446-8.5517 25.896 0 46.475 6.4993 61.395 19.1555 14.921 12.828 23.495 29.76 25.725 50.968h-58.48c-1.029-7.183-4.116-12.827-9.432-16.932-5.317-4.105-12.348-6.328-20.923-6.328-7.374 0-13.034 1.368-16.978 4.275-3.944 2.908-6.002 6.671-6.002 11.631 0 5.986 3.087 10.433 9.432 13.34 6.345 2.908 16.12 5.986 29.497 8.894 15.263 3.934 27.782 7.868 37.386 11.63 9.604 3.763 18.179 9.92 25.382 18.472 7.374 8.551 10.975 19.84 11.318 34.206 0 12.144-3.43 22.919-10.118 32.326-6.86 9.578-16.635 16.932-29.326 22.405-12.69 5.473-27.439 8.21-44.246 8.21-18.178 0-34.299-3.079-48.361-9.236Zm188.473 0c-14.062-6.157-22.466-14.538-30.698-25.313-8.231-10.775-12.69-22.747-13.719-36.088h59.852c.686 7.183 4.116 12.998 9.947 17.445 6.002 4.447 13.205 6.671 21.951 6.671 7.889 0 14.063-1.54 18.35-4.618 4.288-3.079 6.517-7.013 6.517-11.973 0-5.986-3.087-10.262-9.261-13.169-6.174-2.908-16.12-5.986-30.012-9.407-14.748-3.421-27.267-7.012-37.043-10.946-9.946-3.763-18.35-9.92-25.553-18.13-7.202-8.209-10.804-19.326-10.804-33.522 0-11.801 3.259-22.576 9.775-32.325 6.517-9.749 16.121-17.446 28.983-23.0898 12.691-5.6441 27.783-8.5517 45.447-8.5517 25.896 0 46.475 6.4993 61.395 19.1555 14.92 12.828 23.495 29.76 25.725 50.968h-58.652c-1.029-7.183-4.116-12.827-9.432-16.932-5.317-4.105-12.348-6.328-20.923-6.328-7.374 0-13.033 1.368-16.978 4.275-3.944 2.908-6.002 6.671-6.002 11.631 0 5.986 3.087 10.433 9.432 13.34 6.345 2.908 16.121 5.986 29.497 8.894 15.263 3.934 27.783 7.868 37.386 11.63 9.604 3.763 18.179 9.92 25.382 18.472 7.374 8.551 10.976 19.84 11.319 34.206 0 12.144-3.43 22.919-10.119 32.326-6.86 9.578-16.635 16.932-29.325 22.405-12.691 5.473-27.44 8.21-44.246 8.21-18.179 0-34.128-3.079-48.191-9.236ZM872.959 90.6701h-59.852V296.936h59.852V90.6701Zm-16.523-23.19c17.938-7.4106 26.457-27.9213 19.026-45.8117-7.43-17.89053-27.996-26.38613-45.935-18.97549C811.588 10.1036 803.069 30.6142 810.5 48.5047c7.431 17.8904 27.997 26.386 45.936 18.9754Zm151.834 23.19c-26.753 0-57.622 10.2619-79.23 32.3249-23.838 24.458-32.584 52.508-32.584 78.163v95.778h59.852v-95.778c0-16.933 7.545-28.734 14.92-35.917 7.545-7.355 18.178-14.88 36.012-14.88h17.49V90.6701h-16.46Zm-700.219-1.368c-58.652 0-104.955 46.1789-104.955 104.6719 0 57.81 43.902 103.133 103.583 103.133h4.973l39.959-58.835h-32.927c-16.635 0-32.927-4.447-41.674-13.17-8.06-8.038-13.376-18.984-13.376-31.128 0-25.313 19.207-44.297 44.417-44.297 25.381 0 44.589 19.156 44.589 44.297v103.133h60.366V193.974c-.171-58.664-46.475-104.6719-104.955-104.6719Z"/>
  <defs>
    <linearGradient id="a" x1="13.1207" x2="117.761" y1="291.503" y2="203.461" gradientUnits="userSpaceOnUse">
      <stop offset=".00296474" stop-color="#FB2576"/>
      <stop offset=".2422" stop-color="#F82475"/>
      <stop offset=".412" stop-color="#EF2273"/>
      <stop offset=".5603" stop-color="#DF1E6F"/>
      <stop offset=".6963" stop-color="#C91969"/>
      <stop offset=".8238" stop-color="#AD1361"/>
      <stop offset=".9434" stop-color="#8A0A58"/>
      <stop offset="1" stop-color="#770653"/>
    </linearGradient>
  </defs>
</svg>
